<?xml version="1.0" standalone="no"?>
<!DOCTYPE svg PUBLIC "-//W3C//DTD SVG 20010904//EN"
 "http://www.w3.org/TR/2001/REC-SVG-20010904/DTD/svg10.dtd">
<svg version="1.0" xmlns="http://www.w3.org/2000/svg"
 width="308.7612359841165"
    height="304.915625"
   viewBox="0 0 106.00782394174519 104.68749999999999"
 preserveAspectRatio="xMidYMid meet">

<g transform="translate(0.000000,1500.000000) scale(0.100000,-0.100000)"
fill="#000000" stroke="none">
<path d="M0 7500 l0 -7500 10000 0 10000 0 0 7500 0 7500 -10000 0 -10000 0 0
-7500z m8840 285 l0 -2875 -140 0 -140 0 0 -145 0 -145 -2880 0 -2880 0 0
2880 0 2880 145 0 145 0 0 140 0 140 2875 0 2875 0 0 -2875z m3203 1522 c54
-140 1321 -3274 1326 -3280 4 -4 79 -19 167 -32 216 -34 214 -33 214 -56 0
-25 3 -25 69 15 31 19 107 59 169 90 l112 56 0 1374 0 1374 -32 5 c-18 3 -111
18 -205 33 l-173 27 0 67 c0 37 3 101 6 143 l7 77 888 0 889 0 5 -22 c36 -162
41 -149 -67 -219 -51 -33 -153 -89 -225 -125 l-133 -65 0 -552 c0 -547 0 -551
20 -532 56 57 1088 1170 1086 1172 -2 2 -321 53 -332 53 -3 0 -3 64 -2 143 l3
142 702 3 702 2 12 -57 c6 -32 12 -74 13 -93 l1 -35 -130 -65 c-71 -36 -178
-85 -236 -109 l-106 -42 -469 -495 c-258 -273 -469 -502 -469 -508 0 -7 294
-409 653 -893 l653 -879 117 -23 c64 -12 137 -27 162 -32 l45 -10 -3 -139 -3
-140 -616 2 -616 3 -516 724 -515 724 -78 -84 -78 -84 0 -467 0 -466 28 -6
c15 -3 101 -17 192 -31 91 -15 173 -29 183 -31 15 -5 17 -21 17 -145 l0 -139
-1768 0 -1768 0 -16 83 c-16 80 -16 82 4 97 43 33 199 123 295 173 57 29 103
57 103 63 0 6 -40 119 -88 250 l-89 239 -584 3 -585 2 -102 -268 c-56 -148
-102 -273 -102 -278 0 -5 91 -24 203 -43 111 -18 212 -35 225 -38 21 -5 22 -9
22 -113 0 -59 -3 -122 -6 -139 l-6 -31 -743 0 -742 0 -14 86 -15 85 80 50 c45
28 145 82 223 122 l142 72 39 95 c246 596 1092 2691 1092 2703 0 9 -16 60 -36
112 -20 53 -33 99 -30 102 6 6 790 211 812 212 7 1 14 -5 17 -12z"/>
<path d="M3660 7500 l0 -2340 1305 0 1305 0 0 730 0 730 701 1577 c386 868
708 1593 715 1611 l14 32 -2020 0 -2020 0 0 -2340z"/>
<path d="M11358 7593 l-205 -548 410 -3 c226 -1 411 -1 413 1 4 4 -396 1080
-405 1090 -4 4 -100 -239 -213 -540z"/>
</g>
</svg>
